<svg xmlns="http://www.w3.org/2000/svg" viewBox="-1 -1 36 32" aria-hidden="true"><g fill="#E40046"><path d="M6.3 25.6414c.3213.5478.672.7496 1.3145.7496h11.9767c.6428 0 .9931-.1732 1.4022-.692l9.0558-11.5296c.2042-.2594-.0294-.6916-.3506-.6916H15.1803c-.6425 0-.9932-.2018-1.3144-.7492L6.5629.2766c-.1752-.2883-.6426-.2304-.7597.0576L.1657 13.7948c-.2629.6054-.2045 1.009.1168 1.5564z" transform="translate(-.0001 1.3952)"/><path d="M21.373 12.1636c.3214.5478.672.7495 1.3146.7495h7.0107c.3506 0 .6135-.4325.4384-.7495L23.4472.7496C23.1259.2018 22.7752 0 22.1327 0H8.7535c-.3503 0-.6132.4322-.438.7496l3.4763 5.9376c.3213.5474.6716.7492 1.3145.7492h5.5207z"/></g></svg>
